<svg xmlns="http://www.w3.org/2000/svg" width="106.896" height="22.296" viewBox="0 0 106.896 22.296">
  <g id="Logo" transform="translate(0)">
    <path id="doughco" d="M42.12,18.024l2.568-.672a2.846,2.846,0,0,0,2.929,2.52c2.208,0,3.312-1.128,3.312-3.5V15.144a3.736,3.736,0,0,1-3.384,1.7,5.377,5.377,0,0,1-5.4-5.688,5.416,5.416,0,0,1,5.4-5.688A3.634,3.634,0,0,1,51,7.176V5.688h2.687V16.272c0,3.12-1.607,6.024-6,6.024C44.592,22.3,42.432,20.376,42.12,18.024Zm46.656-6.5a6.062,6.062,0,1,1,12.12,0,6.062,6.062,0,1,1-12.12,0Zm-12.864,0a5.94,5.94,0,0,1,5.976-6.192,5.226,5.226,0,0,1,5.351,3.84l-2.5.912A2.749,2.749,0,0,0,81.912,7.9c-1.7,0-3.216,1.273-3.216,3.624s1.512,3.672,3.264,3.672a2.949,2.949,0,0,0,2.928-2.16l2.448.888a5.42,5.42,0,0,1-5.376,3.816A6,6,0,0,1,75.912,11.52Zm-61.465,0A5.942,5.942,0,0,1,20.5,5.328a5.947,5.947,0,0,1,6.072,6.192A5.953,5.953,0,0,1,20.5,17.736,5.948,5.948,0,0,1,14.448,11.52Zm14.616,1.536V5.688h2.785v6.864c0,1.44.671,2.664,2.352,2.664A2.341,2.341,0,0,0,36.648,12.6V5.688h2.784V15.24a18.854,18.854,0,0,0,.121,2.137H36.888a8.624,8.624,0,0,1-.1-1.3,3.739,3.739,0,0,1-3.312,1.632A4.322,4.322,0,0,1,29.064,13.056ZM0,11.5c0-3.36,2.28-6.12,5.568-6.12,2.039,0,3.072.936,3.432,1.68V0h2.712V15.24a19.035,19.035,0,0,0,.121,2.137H9.168a11.585,11.585,0,0,1-.121-1.512,3.844,3.844,0,0,1-3.432,1.8C2.256,17.664,0,15.024,0,11.5Zm64.7,5.881V10.464c0-1.44-.648-2.592-2.4-2.592a2.431,2.431,0,0,0-2.425,2.64v6.864H57.1V0H59.88V6.816a4.167,4.167,0,0,1,3.336-1.463c2.88,0,4.272,2.064,4.272,4.631v7.393Z" transform="translate(0)"/>
    <path id="_." data-name="." d="M1.944,3.912A1.956,1.956,0,0,0,3.912,1.968,1.977,1.977,0,0,0,1.944,0,1.956,1.956,0,0,0,0,1.968,1.936,1.936,0,0,0,1.944,3.912Z" transform="translate(102.984 13.608)" fill="#fe707b"/>
  </g>
</svg>
